# xmcd
#
# Track frame offsets: 
#        182
#        34220
#        49025
#        66635
#        83860
#        107085
#        122135
#        145592
#        165775
#        186037
#        203937
#        220817
#
# Disc length: 3475 seconds
#
# Revision: 3
# Processed by: cddbd v1.5.2PL0 Copyright (c) Steve Scherf et al.
# Submitted via: ExactAudioCopyFreeDBPlugin 1.0
#
DISCID=a90d910c
DTITLE=Angela Brown - Live
DYEAR=1993
DGENRE=Blues
TTITLE0=St. Louis Blues
TTITLE1=Black Drawers
TTITLE2=Women be wise
TTITLE3=Can we do that?
TTITLE4=Stormy Weather
TTITLE5=Sister
TTITLE6=All of me
TTITLE7=Making Whoopee
TTITLE8=Deep Purple
TTITLE9=Am I blue
TTITLE10=Rock me
TTITLE11=Black Water Blues
EXTD=Recorded live at the Blues Café, Berlin, 24 June 1993\nAngela Bro
EXTD=wn - Vocals\nReggie Moore - Piano\nEarl Boustic - Bass\nSpecial g
EXTD=uest: Garry Wiggins - Tenor Sax
EXTT0=(W.C. Handy)
EXTT1=(trad. arr. Brown)
EXTT2=(Wallace)
EXTT3=(Brown)
EXTT4=(arlen/Harold/Köhler)
EXTT5=(Quincey Jones)
EXTT6=(trad. arr. Brown)
EXTT7=(Donaldson/Kahn)
EXTT8=(Rose/Parish)
EXTT9=(Clarke/Alst)
EXTT10=(Freedman/Max/Knight)
EXTT11=(tradd. arr. Brown)
PLAYORDER=
